<mxfile host="app.diagrams.net" modified="2022-08-26T08:37:00.873Z" agent="5.0 (Macintosh; Intel Mac OS X 10_15_7) AppleWebKit/537.36 (KHTML, like Gecko) Chrome/104.0.0.0 Safari/537.36" etag="s4vTCmxVZh2m1zUPVVdJ" version="20.2.7" type="github">
  <diagram id="FNAb4ETHkIl-EfEuZrZ9" name="第 1 页">
    <mxGraphModel dx="1018" dy="633" grid="1" gridSize="10" guides="1" tooltips="1" connect="1" arrows="1" fold="1" page="1" pageScale="1" pageWidth="827" pageHeight="1169" math="0" shadow="0">
      <root>
        <mxCell id="0" />
        <mxCell id="1" parent="0" />
        <mxCell id="2Dl-801yYW-nUZBLow6B-1" value="a" style="rounded=1;whiteSpace=wrap;html=1;strokeColor=#d6b656;fillColor=#fff2cc;" vertex="1" parent="1">
          <mxGeometry x="100" y="280" width="50" height="50" as="geometry" />
        </mxCell>
        <mxCell id="2Dl-801yYW-nUZBLow6B-2" value="" style="edgeStyle=none;rounded=0;orthogonalLoop=1;jettySize=auto;html=1;fontSize=15;strokeWidth=1;" edge="1" parent="1" source="2Dl-801yYW-nUZBLow6B-3" target="2Dl-801yYW-nUZBLow6B-1">
          <mxGeometry relative="1" as="geometry" />
        </mxCell>
        <mxCell id="2Dl-801yYW-nUZBLow6B-3" value="b" style="rounded=1;whiteSpace=wrap;html=1;strokeColor=#d6b656;fillColor=#fff2cc;" vertex="1" parent="1">
          <mxGeometry x="210" y="280" width="50" height="50" as="geometry" />
        </mxCell>
        <mxCell id="2Dl-801yYW-nUZBLow6B-4" value="" style="edgeStyle=none;rounded=0;orthogonalLoop=1;jettySize=auto;html=1;fontSize=15;strokeWidth=1;" edge="1" parent="1" source="2Dl-801yYW-nUZBLow6B-5" target="2Dl-801yYW-nUZBLow6B-3">
          <mxGeometry relative="1" as="geometry" />
        </mxCell>
        <mxCell id="2Dl-801yYW-nUZBLow6B-5" value="&lt;b&gt;A&lt;/b&gt;" style="rounded=1;whiteSpace=wrap;html=1;strokeColor=#d6b656;fillColor=#fff2cc;" vertex="1" parent="1">
          <mxGeometry x="330" y="280" width="50" height="50" as="geometry" />
        </mxCell>
        <mxCell id="2Dl-801yYW-nUZBLow6B-6" value="" style="edgeStyle=none;rounded=0;orthogonalLoop=1;jettySize=auto;html=1;fontSize=15;strokeWidth=1;entryX=1;entryY=0.5;entryDx=0;entryDy=0;" edge="1" parent="1" source="2Dl-801yYW-nUZBLow6B-7" target="2Dl-801yYW-nUZBLow6B-5">
          <mxGeometry relative="1" as="geometry" />
        </mxCell>
        <mxCell id="2Dl-801yYW-nUZBLow6B-7" value="B" style="rounded=1;whiteSpace=wrap;html=1;strokeColor=#FF6BA1;" vertex="1" parent="1">
          <mxGeometry x="450" y="280" width="50" height="50" as="geometry" />
        </mxCell>
        <mxCell id="2Dl-801yYW-nUZBLow6B-8" value="" style="edgeStyle=none;rounded=0;orthogonalLoop=1;jettySize=auto;html=1;fontSize=15;strokeWidth=1;" edge="1" parent="1" source="2Dl-801yYW-nUZBLow6B-9" target="2Dl-801yYW-nUZBLow6B-7">
          <mxGeometry relative="1" as="geometry" />
        </mxCell>
        <mxCell id="2Dl-801yYW-nUZBLow6B-9" value="C" style="rounded=1;whiteSpace=wrap;html=1;strokeColor=#FF6BA1;" vertex="1" parent="1">
          <mxGeometry x="570" y="280" width="50" height="50" as="geometry" />
        </mxCell>
        <mxCell id="2Dl-801yYW-nUZBLow6B-10" style="edgeStyle=none;rounded=0;orthogonalLoop=1;jettySize=auto;html=1;exitX=0;exitY=0.5;exitDx=0;exitDy=0;fontSize=15;strokeWidth=1;entryX=1;entryY=0.25;entryDx=0;entryDy=0;" edge="1" parent="1" source="2Dl-801yYW-nUZBLow6B-11" target="2Dl-801yYW-nUZBLow6B-1">
          <mxGeometry relative="1" as="geometry">
            <mxPoint x="150" y="310" as="targetPoint" />
          </mxGeometry>
        </mxCell>
        <mxCell id="2Dl-801yYW-nUZBLow6B-11" value="D" style="rounded=1;whiteSpace=wrap;html=1;strokeColor=#d6b656;fillColor=#fff2cc;" vertex="1" parent="1">
          <mxGeometry x="210" y="170" width="50" height="50" as="geometry" />
        </mxCell>
        <mxCell id="2Dl-801yYW-nUZBLow6B-12" value="" style="edgeStyle=none;rounded=0;orthogonalLoop=1;jettySize=auto;html=1;fontSize=15;strokeWidth=1;" edge="1" parent="1" source="2Dl-801yYW-nUZBLow6B-13" target="2Dl-801yYW-nUZBLow6B-11">
          <mxGeometry relative="1" as="geometry" />
        </mxCell>
        <mxCell id="2Dl-801yYW-nUZBLow6B-13" value="E" style="rounded=1;whiteSpace=wrap;html=1;strokeColor=#d6b656;fillColor=#fff2cc;" vertex="1" parent="1">
          <mxGeometry x="330" y="170" width="50" height="50" as="geometry" />
        </mxCell>
        <mxCell id="2Dl-801yYW-nUZBLow6B-14" value="" style="edgeStyle=none;rounded=0;orthogonalLoop=1;jettySize=auto;html=1;fontSize=15;strokeWidth=1;" edge="1" parent="1" source="2Dl-801yYW-nUZBLow6B-15" target="2Dl-801yYW-nUZBLow6B-13">
          <mxGeometry relative="1" as="geometry" />
        </mxCell>
        <mxCell id="2Dl-801yYW-nUZBLow6B-15" value="F" style="rounded=1;whiteSpace=wrap;html=1;strokeColor=#d6b656;fillColor=#fff2cc;" vertex="1" parent="1">
          <mxGeometry x="450" y="170" width="50" height="50" as="geometry" />
        </mxCell>
        <mxCell id="2Dl-801yYW-nUZBLow6B-16" value="" style="edgeStyle=none;rounded=0;orthogonalLoop=1;jettySize=auto;html=1;fontSize=15;strokeWidth=1;" edge="1" parent="1" source="2Dl-801yYW-nUZBLow6B-17" target="2Dl-801yYW-nUZBLow6B-15">
          <mxGeometry relative="1" as="geometry" />
        </mxCell>
        <mxCell id="2Dl-801yYW-nUZBLow6B-17" value="G" style="rounded=1;whiteSpace=wrap;html=1;strokeColor=#d6b656;fillColor=#fff2cc;" vertex="1" parent="1">
          <mxGeometry x="570" y="170" width="50" height="50" as="geometry" />
        </mxCell>
        <mxCell id="2Dl-801yYW-nUZBLow6B-18" value="from" style="text;strokeColor=none;fillColor=none;align=center;verticalAlign=middle;spacingLeft=4;spacingRight=4;overflow=hidden;points=[[0,0.5],[1,0.5]];portConstraint=eastwest;rotatable=0;fontStyle=1;fontSize=15;" vertex="1" parent="1">
          <mxGeometry x="315" y="350" width="80" height="30" as="geometry" />
        </mxCell>
        <mxCell id="2Dl-801yYW-nUZBLow6B-19" value="" style="endArrow=none;dashed=1;html=1;rounded=0;fontSize=15;entryX=0.5;entryY=1.1;entryDx=0;entryDy=0;entryPerimeter=0;strokeWidth=3;dashPattern=1 1;" edge="1" parent="1" target="2Dl-801yYW-nUZBLow6B-18">
          <mxGeometry width="50" height="50" relative="1" as="geometry">
            <mxPoint x="355" y="560" as="sourcePoint" />
            <mxPoint x="420" y="410" as="targetPoint" />
          </mxGeometry>
        </mxCell>
        <mxCell id="2Dl-801yYW-nUZBLow6B-20" value="a, b, A, D, E, F, G" style="text;strokeColor=none;fillColor=none;align=center;verticalAlign=middle;spacingLeft=4;spacingRight=4;overflow=hidden;points=[[0,0.5],[1,0.5]];portConstraint=eastwest;rotatable=0;fontSize=15;fontStyle=1" vertex="1" parent="1">
          <mxGeometry x="560" y="425" width="150" height="50" as="geometry" />
        </mxCell>
        <mxCell id="2Dl-801yYW-nUZBLow6B-21" value="" style="shape=curlyBracket;whiteSpace=wrap;html=1;rounded=1;fontSize=15;strokeColor=#FF6BA1;" vertex="1" parent="1">
          <mxGeometry x="540" y="420" width="20" height="60" as="geometry" />
        </mxCell>
        <mxCell id="2Dl-801yYW-nUZBLow6B-22" value="" style="shape=curlyBracket;whiteSpace=wrap;html=1;rounded=1;flipH=1;fontSize=15;strokeColor=#FF6BA1;" vertex="1" parent="1">
          <mxGeometry x="710" y="420" width="20" height="60" as="geometry" />
        </mxCell>
        <mxCell id="2Dl-801yYW-nUZBLow6B-23" value="" style="edgeStyle=none;html=1;strokeColor=#808080;endArrow=block;endSize=10;dashed=0;verticalAlign=bottom;strokeWidth=2;rounded=0;dashPattern=1 1;fontSize=15;" edge="1" parent="1">
          <mxGeometry width="160" relative="1" as="geometry">
            <mxPoint x="360" y="510" as="sourcePoint" />
            <mxPoint x="670" y="510" as="targetPoint" />
          </mxGeometry>
        </mxCell>
        <mxCell id="2Dl-801yYW-nUZBLow6B-24" value="" style="endArrow=none;dashed=1;html=1;rounded=0;fontSize=15;strokeWidth=1;" edge="1" parent="1">
          <mxGeometry width="50" height="50" relative="1" as="geometry">
            <mxPoint x="80" y="350" as="sourcePoint" />
            <mxPoint x="80" y="140" as="targetPoint" />
          </mxGeometry>
        </mxCell>
        <mxCell id="2Dl-801yYW-nUZBLow6B-25" value="" style="endArrow=none;dashed=1;html=1;rounded=0;fontSize=15;strokeWidth=1;" edge="1" parent="1">
          <mxGeometry width="50" height="50" relative="1" as="geometry">
            <mxPoint x="80" y="350" as="sourcePoint" />
            <mxPoint x="410" y="350" as="targetPoint" />
          </mxGeometry>
        </mxCell>
        <mxCell id="2Dl-801yYW-nUZBLow6B-26" value="" style="endArrow=none;dashed=1;html=1;rounded=0;fontSize=15;strokeWidth=1;" edge="1" parent="1">
          <mxGeometry width="50" height="50" relative="1" as="geometry">
            <mxPoint x="410" y="250" as="sourcePoint" />
            <mxPoint x="410" y="350" as="targetPoint" />
          </mxGeometry>
        </mxCell>
        <mxCell id="2Dl-801yYW-nUZBLow6B-27" value="" style="endArrow=none;dashed=1;html=1;rounded=0;fontSize=15;strokeWidth=1;" edge="1" parent="1">
          <mxGeometry width="50" height="50" relative="1" as="geometry">
            <mxPoint x="410" y="250" as="sourcePoint" />
            <mxPoint x="640" y="250" as="targetPoint" />
          </mxGeometry>
        </mxCell>
        <mxCell id="2Dl-801yYW-nUZBLow6B-28" value="" style="endArrow=none;dashed=1;html=1;rounded=0;fontSize=15;strokeWidth=1;" edge="1" parent="1">
          <mxGeometry width="50" height="50" relative="1" as="geometry">
            <mxPoint x="640" y="140" as="sourcePoint" />
            <mxPoint x="640" y="250" as="targetPoint" />
          </mxGeometry>
        </mxCell>
        <mxCell id="2Dl-801yYW-nUZBLow6B-29" value="" style="endArrow=none;dashed=1;html=1;rounded=0;fontSize=15;strokeWidth=1;" edge="1" parent="1">
          <mxGeometry width="50" height="50" relative="1" as="geometry">
            <mxPoint x="80" y="140" as="sourcePoint" />
            <mxPoint x="640" y="140" as="targetPoint" />
          </mxGeometry>
        </mxCell>
        <mxCell id="2Dl-801yYW-nUZBLow6B-30" value="Return:" style="text;strokeColor=none;fillColor=none;align=center;verticalAlign=middle;spacingLeft=4;spacingRight=4;overflow=hidden;points=[[0,0.5],[1,0.5]];portConstraint=eastwest;rotatable=0;fontStyle=1;fontSize=15;" vertex="1" parent="1">
          <mxGeometry x="435" y="435" width="80" height="30" as="geometry" />
        </mxCell>
        <mxCell id="2Dl-801yYW-nUZBLow6B-31" value="block filter by &quot;reorgPath()&quot;" style="text;strokeColor=none;fillColor=none;align=center;verticalAlign=middle;spacingLeft=4;spacingRight=4;overflow=hidden;points=[[0,0.5],[1,0.5]];portConstraint=eastwest;rotatable=0;fontStyle=1;fontSize=15;" vertex="1" parent="1">
          <mxGeometry x="90" y="490" width="210" height="70" as="geometry" />
        </mxCell>
        <mxCell id="2Dl-801yYW-nUZBLow6B-32" value="to" style="text;strokeColor=none;fillColor=none;align=center;verticalAlign=middle;spacingLeft=4;spacingRight=4;overflow=hidden;points=[[0,0.5],[1,0.5]];portConstraint=eastwest;rotatable=0;fontStyle=1;fontSize=15;" vertex="1" parent="1">
          <mxGeometry x="555" y="100" width="80" height="30" as="geometry" />
        </mxCell>
      </root>
    </mxGraphModel>
  </diagram>
</mxfile>
